<svg width="69" height="60" viewBox="0 0 69 60" fill="none" xmlns="http://www.w3.org/2000/svg">
<path d="M19.5219 0.0750524C14.7686 0.0750524 9.99241 1.57303 6.3656 5.16853C-0.887711 12.3595 -0.688663 23.4456 6.3656 30.6366L34.9999 60L63.6343 30.6366C70.6892 23.4456 70.8873 12.3595 63.6343 5.16853C56.3813 -1.72284 44.5746 -1.72284 37.3216 5.16853L34.9999 7.56567L32.6782 5.16853C29.0502 1.57303 24.2752 0.0750524 19.5219 0.0750524Z" fill="#9AE9DB"/>
<path d="M22.0127 27.18C22.0127 28.0333 21.806 28.76 21.3927 29.36C20.9793 29.9467 20.386 30.4 19.6127 30.72C18.8527 31.04 17.9527 31.2 16.9127 31.2C16.3793 31.2 15.866 31.1733 15.3727 31.12C14.8927 31.0667 14.4527 30.9933 14.0527 30.9C13.6527 30.7933 13.2993 30.6667 12.9927 30.52V28.8C13.4727 29.0133 14.066 29.2067 14.7727 29.38C15.4927 29.5533 16.2327 29.64 16.9927 29.64C17.6993 29.64 18.2927 29.5467 18.7727 29.36C19.2527 29.1733 19.6127 28.9067 19.8527 28.56C20.0927 28.2133 20.2127 27.8067 20.2127 27.34C20.2127 26.8733 20.1127 26.48 19.9127 26.16C19.7127 25.84 19.366 25.5467 18.8727 25.28C18.3927 25 17.7193 24.7067 16.8527 24.4C16.2393 24.1733 15.6993 23.9333 15.2327 23.68C14.7793 23.4133 14.3993 23.1133 14.0927 22.78C13.786 22.4467 13.5527 22.0667 13.3927 21.64C13.246 21.2133 13.1727 20.72 13.1727 20.16C13.1727 19.4 13.366 18.7533 13.7527 18.22C14.1393 17.6733 14.6727 17.2533 15.3527 16.96C16.046 16.6667 16.8393 16.52 17.7327 16.52C18.5193 16.52 19.2393 16.5933 19.8927 16.74C20.546 16.8867 21.1393 17.08 21.6727 17.32L21.1127 18.86C20.6193 18.6467 20.0793 18.4667 19.4927 18.32C18.9193 18.1733 18.3193 18.1 17.6927 18.1C17.0927 18.1 16.5927 18.1867 16.1927 18.36C15.7927 18.5333 15.4927 18.78 15.2927 19.1C15.0927 19.4067 14.9927 19.7667 14.9927 20.18C14.9927 20.66 15.0927 21.06 15.2927 21.38C15.4927 21.7 15.8193 21.9867 16.2727 22.24C16.726 22.4933 17.3393 22.7667 18.1127 23.06C18.9527 23.3667 19.6593 23.7 20.2327 24.06C20.8193 24.4067 21.2593 24.8267 21.5527 25.32C21.8593 25.8133 22.0127 26.4333 22.0127 27.18ZM33.8492 31L32.1292 26.58H26.4692L24.7692 31H22.9492L28.5292 16.66H30.1492L35.7092 31H33.8492ZM29.9892 20.66C29.9492 20.5533 29.8826 20.36 29.7892 20.08C29.6959 19.8 29.6026 19.5133 29.5092 19.22C29.4292 18.9133 29.3626 18.68 29.3092 18.52C29.2426 18.7867 29.1692 19.06 29.0892 19.34C29.0226 19.6067 28.9492 19.8533 28.8692 20.08C28.8026 20.3067 28.7426 20.5 28.6892 20.66L27.0692 24.98H31.5892L29.9892 20.66ZM46.9219 16.72L41.8219 31H40.0219L34.9219 16.72H36.8019L40.0219 25.88C40.1685 26.2667 40.2952 26.64 40.4019 27C40.5085 27.36 40.6019 27.7067 40.6819 28.04C40.7752 28.36 40.8552 28.68 40.9219 29C40.9885 28.68 41.0619 28.3533 41.1419 28.02C41.2352 27.6867 41.3352 27.34 41.4419 26.98C41.5619 26.62 41.6885 26.24 41.8219 25.84L45.0219 16.72H46.9219ZM56.8341 31H48.8541V16.72H56.8341V18.3H50.6541V22.76H56.4741V24.32H50.6541V29.42H56.8341V31Z" fill="#FFF8B6"/>
<path d="M21.3927 29.36L21.8014 29.648L21.8044 29.6437L21.3927 29.36ZM19.6127 30.72L19.4215 30.258L19.4186 30.2592L19.6127 30.72ZM15.3727 31.12L15.3174 31.6169L15.3189 31.6171L15.3727 31.12ZM14.0527 30.9L13.9238 31.3831L13.9314 31.3851L13.939 31.3869L14.0527 30.9ZM12.9927 30.52H12.4927V30.8351L12.7769 30.9711L12.9927 30.52ZM12.9927 28.8L13.1957 28.3431L12.4927 28.0306V28.8H12.9927ZM14.7727 29.38L14.6535 29.8656L14.6556 29.8661L14.7727 29.38ZM18.7727 29.36L18.5914 28.894L18.7727 29.36ZM19.8527 28.56L19.4416 28.2754L19.8527 28.56ZM19.9127 26.16L19.4887 26.425H19.4887L19.9127 26.16ZM18.8727 25.28L18.6207 25.7119L18.6277 25.716L18.6349 25.7199L18.8727 25.28ZM16.8527 24.4L16.6793 24.869L16.6859 24.8714L16.8527 24.4ZM15.2327 23.68L14.9791 24.111L14.9866 24.1153L14.9941 24.1194L15.2327 23.68ZM13.3927 21.64L12.9196 21.8026L12.9245 21.8156L13.3927 21.64ZM13.7527 18.22L14.1575 18.5135L14.1609 18.5087L13.7527 18.22ZM15.3527 16.96L15.1578 16.4995L15.1546 16.5009L15.3527 16.96ZM19.8927 16.74L20.0022 16.2521L20.0022 16.2521L19.8927 16.74ZM21.6727 17.32L22.1426 17.4909L22.3012 17.0546L21.8778 16.864L21.6727 17.32ZM21.1127 18.86L20.9142 19.3189L21.4012 19.5295L21.5826 19.0309L21.1127 18.86ZM19.4927 18.32L19.3687 18.8044L19.3714 18.8051L19.4927 18.32ZM15.2927 19.1L15.7115 19.3732L15.7167 19.365L15.2927 19.1ZM15.2927 21.38L15.7167 21.115H15.7167L15.2927 21.38ZM16.2727 22.24L16.0287 22.6765L16.2727 22.24ZM18.1127 23.06L17.9353 23.5275L17.9412 23.5297L18.1127 23.06ZM20.2327 24.06L19.9667 24.4836L19.9783 24.4905L20.2327 24.06ZM21.5527 25.32L21.1228 25.5756L21.128 25.584L21.5527 25.32ZM21.5127 27.18C21.5127 27.9498 21.3274 28.5733 20.9809 29.0763L21.8044 29.6437C22.2845 28.9467 22.5127 28.1168 22.5127 27.18H21.5127ZM20.9839 29.072C20.6337 29.5691 20.1221 29.9681 19.4215 30.258L19.8038 31.182C20.6499 30.8319 21.3249 30.3242 21.8014 29.648L20.9839 29.072ZM19.4186 30.2592C18.7338 30.5475 17.9028 30.7 16.9127 30.7V31.7C18.0025 31.7 18.9715 31.5325 19.8067 31.1808L19.4186 30.2592ZM16.9127 30.7C16.396 30.7 15.9006 30.6742 15.4264 30.6229L15.3189 31.6171C15.8314 31.6725 16.3627 31.7 16.9127 31.7V30.7ZM15.4279 30.6231C14.9642 30.5715 14.544 30.5012 14.1663 30.4131L13.939 31.3869C14.3613 31.4854 14.8211 31.5618 15.3174 31.6169L15.4279 30.6231ZM14.1815 30.4169C13.8052 30.3165 13.4819 30.1997 13.2084 30.0689L12.7769 30.9711C13.1168 31.1336 13.5001 31.2701 13.9238 31.3831L14.1815 30.4169ZM13.4927 30.52V28.8H12.4927V30.52H13.4927ZM12.7896 29.2569C13.3048 29.4859 13.9282 29.6877 14.6535 29.8656L14.8918 28.8944C14.2038 28.7256 13.6406 28.5408 13.1957 28.3431L12.7896 29.2569ZM14.6556 29.8661C15.415 30.0489 16.1943 30.14 16.9927 30.14V29.14C16.271 29.14 15.5704 29.0578 14.8897 28.8939L14.6556 29.8661ZM16.9927 30.14C17.7398 30.14 18.399 30.0418 18.9539 29.826L18.5914 28.894C18.1863 29.0515 17.6588 29.14 16.9927 29.14V30.14ZM18.9539 29.826C19.5061 29.6113 19.9554 29.2899 20.2638 28.8446L19.4416 28.2754C19.2699 28.5234 18.9992 28.7354 18.5914 28.894L18.9539 29.826ZM20.2638 28.8446C20.5678 28.4055 20.7127 27.897 20.7127 27.34H19.7127C19.7127 27.7163 19.6175 28.0212 19.4416 28.2754L20.2638 28.8446ZM20.7127 27.34C20.7127 26.8018 20.5969 26.3114 20.3367 25.895L19.4887 26.425C19.6284 26.6486 19.7127 26.9449 19.7127 27.34H20.7127ZM20.3367 25.895C20.0738 25.4744 19.6456 25.1294 19.1104 24.8401L18.6349 25.7199C19.0864 25.9639 19.3516 26.2056 19.4887 26.425L20.3367 25.895ZM19.1246 24.8481C18.6057 24.5454 17.8992 24.2399 17.0194 23.9286L16.6859 24.8714C17.5395 25.1734 18.1796 25.4546 18.6207 25.7119L19.1246 24.8481ZM17.026 23.931C16.4302 23.7108 15.9127 23.4803 15.4712 23.2406L14.9941 24.1194C15.4859 24.3864 16.0485 24.6359 16.6793 24.869L17.026 23.931ZM15.4862 23.249C15.0686 23.0034 14.729 22.7332 14.4606 22.4415L13.7247 23.1185C14.0696 23.4934 14.49 23.8232 14.9791 24.111L15.4862 23.249ZM14.4606 22.4415C14.1978 22.1558 13.9984 21.8312 13.8608 21.4644L12.9245 21.8156C13.107 22.3021 13.3742 22.7375 13.7247 23.1185L14.4606 22.4415ZM13.8655 21.4775C13.7406 21.114 13.6727 20.6775 13.6727 20.16H12.6727C12.6727 20.7625 12.7514 21.3127 12.9198 21.8025L13.8655 21.4775ZM13.6727 20.16C13.6727 19.4886 13.8419 18.9488 14.1575 18.5135L13.3479 17.9265C12.8901 18.5579 12.6727 19.3114 12.6727 20.16H13.6727ZM14.1609 18.5087C14.489 18.0449 14.9459 17.68 15.5507 17.4191L15.1546 16.5009C14.3995 16.8266 13.7897 17.3018 13.3444 17.9313L14.1609 18.5087ZM15.5475 17.4205C16.1688 17.1576 16.894 17.02 17.7327 17.02V16.02C16.7847 16.02 15.9232 16.1757 15.1578 16.4995L15.5475 17.4205ZM17.7327 17.02C18.4887 17.02 19.1714 17.0905 19.7831 17.2279L20.0022 16.2521C19.3073 16.0961 18.5499 16.02 17.7327 16.02V17.02ZM19.7831 17.2279C20.4082 17.3682 20.9689 17.5516 21.4675 17.776L21.8778 16.864C21.3097 16.6084 20.6838 16.4052 20.0022 16.2521L19.7831 17.2279ZM21.2028 17.1491L20.6428 18.6891L21.5826 19.0309L22.1426 17.4909L21.2028 17.1491ZM21.3111 18.4011C20.7899 18.1757 20.2238 17.9874 19.6139 17.8349L19.3714 18.8051C19.9349 18.9459 20.4487 19.1176 20.9142 19.3189L21.3111 18.4011ZM19.6166 17.8356C19.0004 17.678 18.3587 17.6 17.6927 17.6V18.6C18.28 18.6 18.8382 18.6687 19.3687 18.8044L19.6166 17.8356ZM17.6927 17.6C17.0484 17.6 16.4755 17.6925 15.9939 17.9012L16.3915 18.8188C16.7098 18.6808 17.1369 18.6 17.6927 18.6V17.6ZM15.9939 17.9012C15.5158 18.1084 15.1303 18.4163 14.8687 18.835L15.7167 19.365C15.855 19.1437 16.0696 18.9583 16.3915 18.8188L15.9939 17.9012ZM14.8739 18.8269C14.6142 19.2249 14.4927 19.6826 14.4927 20.18H15.4927C15.4927 19.8508 15.5711 19.5884 15.7115 19.3731L14.8739 18.8269ZM14.4927 20.18C14.4927 20.7285 14.6071 21.2266 14.8687 21.645L15.7167 21.115C15.5782 20.8934 15.4927 20.5915 15.4927 20.18H14.4927ZM14.8687 21.645C15.1269 22.0582 15.5282 22.3968 16.0287 22.6765L16.5166 21.8035C16.1104 21.5766 15.8584 21.3418 15.7167 21.115L14.8687 21.645ZM16.0287 22.6765C16.5122 22.9466 17.1508 23.2299 17.9353 23.5275L18.29 22.5925C17.5279 22.3034 16.9398 22.04 16.5166 21.8035L16.0287 22.6765ZM17.9412 23.5297C18.758 23.8279 19.4309 24.147 19.9668 24.4834L20.4985 23.6366C19.8877 23.253 19.1473 22.9054 18.2841 22.5903L17.9412 23.5297ZM19.9783 24.4905C20.5063 24.8024 20.8798 25.1667 21.1229 25.5755L21.9824 25.0645C21.6389 24.4866 21.1324 24.0109 20.487 23.6295L19.9783 24.4905ZM21.128 25.584C21.3732 25.9784 21.5127 26.5004 21.5127 27.18H22.5127C22.5127 26.3663 22.3454 25.6483 21.9773 25.056L21.128 25.584ZM33.8492 31L33.3833 31.1813L33.5073 31.5H33.8492V31ZM32.1292 26.58L32.5952 26.3987L32.4712 26.08H32.1292V26.58ZM26.4692 26.58V26.08H26.1258L26.0025 26.4005L26.4692 26.58ZM24.7692 31V31.5H25.1126L25.2359 31.1795L24.7692 31ZM22.9492 31L22.4833 30.8187L22.2181 31.5H22.9492V31ZM28.5292 16.66V16.16H28.1873L28.0633 16.4787L28.5292 16.66ZM30.1492 16.66L30.6154 16.4792L30.4916 16.16H30.1492V16.66ZM35.7092 31V31.5H36.4394L36.1754 30.8192L35.7092 31ZM29.9892 20.66L30.4581 20.4863L30.4574 20.4844L29.9892 20.66ZM29.7892 20.08L29.3149 20.2381V20.2381L29.7892 20.08ZM29.5092 19.22L29.0254 19.3462L29.0287 19.359L29.0328 19.3716L29.5092 19.22ZM29.3092 18.52L29.7836 18.3619L29.2406 16.733L28.8241 18.3987L29.3092 18.52ZM29.0892 19.34L28.6085 19.2026L28.6062 19.2106L28.6041 19.2187L29.0892 19.34ZM28.8692 20.08L28.3977 19.9136L28.3933 19.9261L28.3895 19.9389L28.8692 20.08ZM28.6892 20.66L29.1574 20.8356L29.1606 20.8269L29.1636 20.8181L28.6892 20.66ZM27.0692 24.98L26.6011 24.8044L26.3477 25.48H27.0692V24.98ZM31.5892 24.98V25.48H32.3076L32.0581 24.8063L31.5892 24.98ZM34.3152 30.8187L32.5952 26.3987L31.6633 26.7613L33.3833 31.1813L34.3152 30.8187ZM32.1292 26.08H26.4692V27.08H32.1292V26.08ZM26.0025 26.4005L24.3025 30.8205L25.2359 31.1795L26.9359 26.7595L26.0025 26.4005ZM24.7692 30.5H22.9492V31.5H24.7692V30.5ZM23.4152 31.1813L28.9952 16.8413L28.0633 16.4787L22.4833 30.8187L23.4152 31.1813ZM28.5292 17.16H30.1492V16.16H28.5292V17.16ZM29.683 16.8408L35.243 31.1808L36.1754 30.8192L30.6154 16.4792L29.683 16.8408ZM35.7092 30.5H33.8492V31.5H35.7092V30.5ZM30.4574 20.4844C30.421 20.3875 30.3571 20.2024 30.2636 19.9219L29.3149 20.2381C29.408 20.5176 29.4774 20.7191 29.5211 20.8356L30.4574 20.4844ZM30.2636 19.9219C30.171 19.6441 30.0784 19.3596 29.9857 19.0684L29.0328 19.3716C29.1268 19.667 29.2208 19.9559 29.3149 20.2381L30.2636 19.9219ZM29.993 19.0938C29.9122 18.7839 29.8422 18.5379 29.7836 18.3619L28.8349 18.6781C28.8829 18.8221 28.9462 19.0427 29.0254 19.3462L29.993 19.0938ZM28.8241 18.3987C28.7589 18.6597 28.687 18.9277 28.6085 19.2026L29.57 19.4774C29.6514 19.1923 29.7262 18.9136 29.7943 18.6413L28.8241 18.3987ZM28.6041 19.2187C28.5408 19.4723 28.4718 19.7037 28.3977 19.9136L29.3407 20.2464C29.4266 20.003 29.5043 19.7411 29.5743 19.4613L28.6041 19.2187ZM28.3895 19.9389C28.3239 20.1619 28.2658 20.3493 28.2149 20.5019L29.1636 20.8181C29.2194 20.6507 29.2812 20.4514 29.3489 20.2211L28.3895 19.9389ZM28.2211 20.4844L26.6011 24.8044L27.5374 25.1556L29.1574 20.8356L28.2211 20.4844ZM27.0692 25.48H31.5892V24.48H27.0692V25.48ZM32.0581 24.8063L30.4581 20.4863L29.5203 20.8337L31.1203 25.1537L32.0581 24.8063ZM46.9219 16.72L47.3927 16.8882L47.6314 16.22H46.9219V16.72ZM41.8219 31V31.5H42.1742L42.2927 31.1682L41.8219 31ZM40.0219 31L39.551 31.1682L39.6695 31.5H40.0219V31ZM34.9219 16.72V16.22H34.2124L34.451 16.8882L34.9219 16.72ZM36.8019 16.72L37.2736 16.5542L37.1561 16.22H36.8019V16.72ZM40.0219 25.88L39.55 26.0459L39.5544 26.0573L40.0219 25.88ZM40.4019 27L40.8813 26.858L40.4019 27ZM40.6819 28.04L40.1957 28.1567L40.1985 28.1684L40.2019 28.18L40.6819 28.04ZM40.9219 29L40.4324 29.102H41.4114L40.9219 29ZM41.1419 28.02L40.6604 27.8852L40.6579 27.8942L40.6557 27.9033L41.1419 28.02ZM41.4419 26.98L40.9675 26.8219L40.9649 26.8299L40.9625 26.838L41.4419 26.98ZM41.8219 25.84L41.35 25.6744L41.3475 25.6819L41.8219 25.84ZM45.0219 16.72V16.22H44.6674L44.5501 16.5545L45.0219 16.72ZM46.451 16.5518L41.351 30.8318L42.2927 31.1682L47.3927 16.8882L46.451 16.5518ZM41.8219 30.5H40.0219V31.5H41.8219V30.5ZM40.4927 30.8318L35.3927 16.5518L34.451 16.8882L39.551 31.1682L40.4927 30.8318ZM34.9219 17.22H36.8019V16.22H34.9219V17.22ZM36.3302 16.8858L39.5502 26.0458L40.4936 25.7142L37.2736 16.5542L36.3302 16.8858ZM39.5544 26.0573C39.6971 26.4335 39.8197 26.7951 39.9225 27.142L40.8813 26.858C40.7707 26.4849 40.64 26.0998 40.4894 25.7027L39.5544 26.0573ZM39.9225 27.142C40.0269 27.4944 40.1179 27.8326 40.1957 28.1567L41.1681 27.9233C41.0858 27.5807 40.9902 27.2256 40.8813 26.858L39.9225 27.142ZM40.2019 28.18C40.2916 28.4877 40.3684 28.795 40.4324 29.102L41.4114 28.898C41.342 28.565 41.2588 28.2323 41.1619 27.9L40.2019 28.18ZM41.4114 29.102C41.477 28.7871 41.5492 28.4654 41.6281 28.1367L40.6557 27.9033C40.5746 28.2413 40.5001 28.5729 40.4324 28.898L41.4114 29.102ZM41.6234 28.1548C41.716 27.8241 41.8153 27.4798 41.9213 27.122L40.9625 26.838C40.8552 27.2002 40.7545 27.5492 40.6604 27.8852L41.6234 28.1548ZM41.9162 27.1381C42.0362 26.7781 42.1629 26.3981 42.2962 25.9981L41.3475 25.6819C41.2142 26.0819 41.0875 26.4619 40.9675 26.8219L41.9162 27.1381ZM42.2937 26.0055L45.4937 16.8855L44.5501 16.5545L41.3501 25.6745L42.2937 26.0055ZM45.0219 17.22H46.9219V16.22H45.0219V17.22ZM56.8341 31V31.5H57.3341V31H56.8341ZM48.8541 31H48.3541V31.5H48.8541V31ZM48.8541 16.72V16.22H48.3541V16.72H48.8541ZM56.8341 16.72H57.3341V16.22H56.8341V16.72ZM56.8341 18.3V18.8H57.3341V18.3H56.8341ZM50.6541 18.3V17.8H50.1541V18.3H50.6541ZM50.6541 22.76H50.1541V23.26H50.6541V22.76ZM56.4741 22.76H56.9741V22.26H56.4741V22.76ZM56.4741 24.32V24.82H56.9741V24.32H56.4741ZM50.6541 24.32V23.82H50.1541V24.32H50.6541ZM50.6541 29.42H50.1541V29.92H50.6541V29.42ZM56.8341 29.42H57.3341V28.92H56.8341V29.42ZM56.8341 30.5H48.8541V31.5H56.8341V30.5ZM49.3541 31V16.72H48.3541V31H49.3541ZM48.8541 17.22H56.8341V16.22H48.8541V17.22ZM56.3341 16.72V18.3H57.3341V16.72H56.3341ZM56.8341 17.8H50.6541V18.8H56.8341V17.8ZM50.1541 18.3V22.76H51.1541V18.3H50.1541ZM50.6541 23.26H56.4741V22.26H50.6541V23.26ZM55.9741 22.76V24.32H56.9741V22.76H55.9741ZM56.4741 23.82H50.6541V24.82H56.4741V23.82ZM50.1541 24.32V29.42H51.1541V24.32H50.1541ZM50.6541 29.92H56.8341V28.92H50.6541V29.92ZM56.3341 29.42V31H57.3341V29.42H56.3341Z" fill="#FFF8B6"/>
</svg>
