<svg width="91" height="29" viewBox="0 0 91 29" fill="none" xmlns="http://www.w3.org/2000/svg">
<g clip-path="url(#clip0_208_347)">
<rect width="91" height="29" rx="14.5" fill="#FFF8B6"/>
<path d="M31.0423 16.6798C31.0423 17.2771 30.8976 17.7858 30.6083 18.2058C30.3189 18.6164 29.9036 18.9338 29.3623 19.1578C28.8303 19.3818 28.2003 19.4938 27.4723 19.4938C27.0989 19.4938 26.7396 19.4751 26.3943 19.4378C26.0583 19.4004 25.7503 19.3491 25.4703 19.2838C25.1903 19.2091 24.9429 19.1204 24.7283 19.0178V17.8138C25.0643 17.9631 25.4796 18.0984 25.9743 18.2198C26.4783 18.3411 26.9963 18.4018 27.5283 18.4018C28.0229 18.4018 28.4383 18.3364 28.7743 18.2058C29.1103 18.0751 29.3623 17.8884 29.5303 17.6458C29.6983 17.4031 29.7823 17.1184 29.7823 16.7918C29.7823 16.4651 29.7123 16.1898 29.5723 15.9658C29.4323 15.7418 29.1896 15.5364 28.8443 15.3498C28.5083 15.1538 28.0369 14.9484 27.4303 14.7338C27.0009 14.5751 26.6229 14.4071 26.2963 14.2298C25.9789 14.0431 25.7129 13.8331 25.4983 13.5998C25.2836 13.3664 25.1203 13.1004 25.0083 12.8018C24.9056 12.5031 24.8543 12.1578 24.8543 11.7658C24.8543 11.2338 24.9896 10.7811 25.2603 10.4078C25.5309 10.0251 25.9043 9.73109 26.3803 9.52576C26.8656 9.32043 27.4209 9.21776 28.0463 9.21776C28.5969 9.21776 29.1009 9.26909 29.5583 9.37176C30.0156 9.47443 30.4309 9.60976 30.8043 9.77776L30.4123 10.8558C30.0669 10.7064 29.6889 10.5804 29.2783 10.4778C28.8769 10.3751 28.4569 10.3238 28.0183 10.3238C27.5983 10.3238 27.2483 10.3844 26.9683 10.5058C26.6883 10.6271 26.4783 10.7998 26.3383 11.0238C26.1983 11.2384 26.1283 11.4904 26.1283 11.7798C26.1283 12.1158 26.1983 12.3958 26.3383 12.6198C26.4783 12.8438 26.7069 13.0444 27.0243 13.2218C27.3416 13.3991 27.7709 13.5904 28.3123 13.7958C28.9003 14.0104 29.3949 14.2438 29.7963 14.4958C30.2069 14.7384 30.5149 15.0324 30.7203 15.3778C30.9349 15.7231 31.0423 16.1571 31.0423 16.6798ZM42.8689 19.3538L41.6649 16.2598H37.7029L36.5129 19.3538H35.2389L39.1449 9.31576H40.2789L44.1709 19.3538H42.8689ZM40.1669 12.1158C40.1389 12.0411 40.0922 11.9058 40.0269 11.7098C39.9616 11.5138 39.8962 11.3131 39.8309 11.1078C39.7749 10.8931 39.7282 10.7298 39.6909 10.6178C39.6442 10.8044 39.5929 10.9958 39.5369 11.1918C39.4902 11.3784 39.4389 11.5511 39.3829 11.7098C39.3362 11.8684 39.2942 12.0038 39.2569 12.1158L38.1229 15.1398H41.2869L40.1669 12.1158ZM56.1213 9.35776L52.5513 19.3538H51.2913L47.7213 9.35776H49.0373L51.2913 15.7698C51.394 16.0404 51.4826 16.3018 51.5573 16.5538C51.632 16.8058 51.6973 17.0484 51.7533 17.2818C51.8186 17.5058 51.8746 17.7298 51.9213 17.9538C51.968 17.7298 52.0193 17.5011 52.0753 17.2678C52.1406 17.0344 52.2106 16.7918 52.2853 16.5398C52.3693 16.2878 52.458 16.0218 52.5513 15.7418L54.7913 9.35776H56.1213ZM66.6009 19.3538H61.0149V9.35776H66.6009V10.4638H62.2749V13.5858H66.3489V14.6778H62.2749V18.2478H66.6009V19.3538Z" fill="#A8A8A8"/>
<path d="M30.6083 18.2058L31.017 18.4938L31.02 18.4894L30.6083 18.2058ZM29.3623 19.1578L29.1711 18.6957L29.1682 18.6969L29.3623 19.1578ZM26.3943 19.4378L26.3391 19.9347L26.3405 19.9349L26.3943 19.4378ZM25.4703 19.2838L25.3414 19.7669L25.349 19.7689L25.3567 19.7707L25.4703 19.2838ZM24.7283 19.0178H24.2283V19.3329L24.5125 19.4688L24.7283 19.0178ZM24.7283 17.8138L24.9313 17.3569L24.2283 17.0444V17.8138H24.7283ZM25.9743 18.2198L25.8552 18.7054L25.8572 18.7059L25.9743 18.2198ZM28.7743 18.2058L28.5931 17.7398L28.7743 18.2058ZM29.5303 17.6458L29.1192 17.3612L29.5303 17.6458ZM29.5723 15.9658L29.1483 16.2308V16.2308L29.5723 15.9658ZM28.8443 15.3498L28.5923 15.7816L28.5994 15.7857L28.6065 15.7896L28.8443 15.3498ZM27.4303 14.7338L27.2569 15.2028L27.2635 15.2051L27.4303 14.7338ZM26.2963 14.2298L26.0428 14.6607L26.0502 14.6651L26.0577 14.6692L26.2963 14.2298ZM25.0083 12.8018L24.5353 12.9644L24.5401 12.9773L25.0083 12.8018ZM25.2603 10.4078L25.6651 10.7013L25.6685 10.6965L25.2603 10.4078ZM26.3803 9.52576L26.1854 9.06526L26.1822 9.06665L26.3803 9.52576ZM29.5583 9.37176L29.6678 8.8839L29.6678 8.8839L29.5583 9.37176ZM30.8043 9.77776L31.2742 9.94863L31.4328 9.51232L31.0095 9.3218L30.8043 9.77776ZM30.4123 10.8558L30.2138 11.3147L30.7008 11.5253L30.8822 11.0266L30.4123 10.8558ZM29.2783 10.4778L29.1544 10.9622L29.157 10.9628L29.2783 10.4778ZM26.3383 11.0238L26.7572 11.2969L26.7623 11.2888L26.3383 11.0238ZM26.3383 12.6198L26.7623 12.3548V12.3548L26.3383 12.6198ZM27.0243 13.2218L26.7804 13.6582L27.0243 13.2218ZM28.3123 13.7958L28.1349 14.2633L28.1408 14.2654L28.3123 13.7958ZM29.7963 14.4958L29.5303 14.9194L29.5419 14.9262L29.7963 14.4958ZM30.7203 15.3778L30.2904 15.6333L30.2956 15.6417L30.7203 15.3778ZM30.5423 16.6798C30.5423 17.1936 30.4191 17.5991 30.1965 17.9221L31.02 18.4894C31.3762 17.9724 31.5423 17.3606 31.5423 16.6798H30.5423ZM30.1995 17.9178C29.9733 18.2389 29.6397 18.5018 29.1711 18.6958L29.5535 19.6198C30.1675 19.3657 30.6646 18.994 31.017 18.4937L30.1995 17.9178ZM29.1682 18.6969C28.7114 18.8893 28.1504 18.9938 27.4723 18.9938V19.9938C28.2501 19.9938 28.9491 19.8742 29.5563 19.6186L29.1682 18.6969ZM27.4723 18.9938C27.1156 18.9938 26.7742 18.9759 26.448 18.9407L26.3405 19.9349C26.705 19.9743 27.0823 19.9938 27.4723 19.9938V18.9938ZM26.4495 18.9408C26.1298 18.9053 25.8416 18.857 25.5839 18.7968L25.3567 19.7707C25.6589 19.8412 25.9867 19.8956 26.3391 19.9347L26.4495 18.9408ZM25.5991 18.8006C25.3428 18.7323 25.1255 18.6535 24.944 18.5667L24.5125 19.4688C24.7604 19.5874 25.0377 19.6859 25.3414 19.7669L25.5991 18.8006ZM25.2283 19.0178V17.8138H24.2283V19.0178H25.2283ZM24.5252 18.2707C24.8964 18.4356 25.3418 18.5795 25.8552 18.7054L26.0934 17.7342C25.6174 17.6174 25.2322 17.4906 24.9313 17.3569L24.5252 18.2707ZM25.8572 18.7059C26.4006 18.8367 26.9579 18.9018 27.5283 18.9018V17.9018C27.0347 17.9018 26.556 17.8455 26.0913 17.7336L25.8572 18.7059ZM27.5283 18.9018C28.0634 18.9018 28.5446 18.8316 28.9555 18.6718L28.5931 17.7398C28.332 17.8413 27.9825 17.9018 27.5283 17.9018V18.9018ZM28.9555 18.6718C29.3637 18.513 29.7051 18.2717 29.9414 17.9304L29.1192 17.3612C29.0195 17.5051 28.8569 17.6372 28.5931 17.7398L28.9555 18.6718ZM29.9414 17.9304C30.1734 17.5952 30.2823 17.2088 30.2823 16.7918H29.2823C29.2823 17.0281 29.2232 17.211 29.1192 17.3612L29.9414 17.9304ZM30.2823 16.7918C30.2823 16.3935 30.1965 16.0211 29.9963 15.7008L29.1483 16.2308C29.2281 16.3584 29.2823 16.5367 29.2823 16.7918H30.2823ZM29.9963 15.7008C29.7934 15.3761 29.4692 15.1192 29.082 14.9099L28.6065 15.7896C28.91 15.9537 29.0712 16.1074 29.1483 16.2308L29.9963 15.7008ZM29.0962 14.9179C28.7213 14.6992 28.2168 14.4817 27.5971 14.2624L27.2635 15.2051C27.8571 15.4152 28.2952 15.6083 28.5923 15.7816L29.0962 14.9179ZM27.6036 14.2648C27.1918 14.1126 26.8363 13.954 26.5348 13.7903L26.0577 14.6692C26.4095 14.8602 26.8101 15.0376 27.2569 15.2028L27.6036 14.2648ZM26.5498 13.7988C26.2683 13.6332 26.0426 13.453 25.8662 13.2612L25.1303 13.9383C25.3832 14.2132 25.6896 14.453 26.0428 14.6607L26.5498 13.7988ZM25.8662 13.2612C25.6954 13.0756 25.566 12.865 25.4764 12.6262L24.5401 12.9773C24.6746 13.3359 24.8718 13.6573 25.1303 13.9383L25.8662 13.2612ZM25.4811 12.6392C25.4002 12.4037 25.3543 12.1153 25.3543 11.7658H24.3543C24.3543 12.2003 24.411 12.6025 24.5354 12.9643L25.4811 12.6392ZM25.3543 11.7658C25.3543 11.3224 25.4655 10.9766 25.6651 10.7012L24.8555 10.1143C24.5137 10.5856 24.3543 11.1451 24.3543 11.7658H25.3543ZM25.6685 10.6965C25.8806 10.3966 26.1775 10.1578 26.5783 9.98487L26.1822 9.06665C25.6311 9.30441 25.1813 9.65354 24.8521 10.119L25.6685 10.6965ZM26.5751 9.98624C26.9884 9.81138 27.4756 9.71776 28.0463 9.71776V8.71776C27.3663 8.71776 26.7428 8.82947 26.1855 9.06528L26.5751 9.98624ZM28.0463 9.71776C28.5663 9.71776 29.033 9.76628 29.4488 9.85962L29.6678 8.8839C29.1689 8.77191 28.6276 8.71776 28.0463 8.71776V9.71776ZM29.4488 9.85962C29.8778 9.95594 30.2605 10.0814 30.5991 10.2337L31.0095 9.3218C30.6014 9.13815 30.1534 8.99291 29.6678 8.8839L29.4488 9.85962ZM30.3344 9.60689L29.9424 10.6849L30.8822 11.0266L31.2742 9.94863L30.3344 9.60689ZM30.6107 10.3968C30.2376 10.2355 29.8334 10.1012 29.3995 9.99269L29.157 10.9628C29.5445 11.0597 29.8963 11.1774 30.2138 11.3147L30.6107 10.3968ZM29.4022 9.99336C28.9581 9.87974 28.4963 9.82376 28.0183 9.82376V10.8238C28.4176 10.8238 28.7958 10.8704 29.1544 10.9622L29.4022 9.99336ZM28.0183 9.82376C27.554 9.82376 27.1311 9.89027 26.7695 10.047L27.1671 10.9645C27.3654 10.8786 27.6426 10.8238 28.0183 10.8238V9.82376ZM26.7695 10.047C26.4114 10.2022 26.116 10.4361 25.9143 10.7588L26.7623 11.2888C26.8406 11.1635 26.9652 11.052 27.1671 10.9645L26.7695 10.047ZM25.9195 10.7506C25.7199 11.0567 25.6283 11.4063 25.6283 11.7798H26.6283C26.6283 11.5745 26.6767 11.4201 26.7571 11.2969L25.9195 10.7506ZM25.6283 11.7798C25.6283 12.1842 25.7128 12.5623 25.9143 12.8848L26.7623 12.3548C26.6838 12.2292 26.6283 12.0473 26.6283 11.7798H25.6283ZM25.9143 12.8848C26.1125 13.202 26.4158 13.4545 26.7804 13.6582L27.2682 12.7853C26.998 12.6343 26.844 12.4855 26.7623 12.3548L25.9143 12.8848ZM26.7804 13.6582C27.1278 13.8524 27.5824 14.0537 28.1349 14.2633L28.4896 13.3283C27.9595 13.1272 27.5554 12.9458 27.2682 12.7853L26.7804 13.6582ZM28.1408 14.2654C28.7056 14.4716 29.1665 14.6907 29.5304 14.9192L30.0622 14.0723C29.6233 13.7968 29.0949 13.5492 28.4837 13.3261L28.1408 14.2654ZM29.5419 14.9262C29.8939 15.1342 30.1354 15.3725 30.2905 15.6333L31.15 15.1222C30.8945 14.6924 30.52 14.3426 30.0506 14.0653L29.5419 14.9262ZM30.2956 15.6417C30.4488 15.8882 30.5423 16.2241 30.5423 16.6798H31.5423C31.5423 16.09 31.4211 15.558 31.1449 15.1138L30.2956 15.6417ZM42.8689 19.3538L42.4029 19.5351L42.5269 19.8538H42.8689V19.3538ZM41.6649 16.2598L42.1308 16.0784L42.0068 15.7598H41.6649V16.2598ZM37.7029 16.2598V15.7598H37.3595L37.2362 16.0803L37.7029 16.2598ZM36.5129 19.3538V19.8538H36.8563L36.9796 19.5332L36.5129 19.3538ZM35.2389 19.3538L34.7729 19.1724L34.5078 19.8538H35.2389V19.3538ZM39.1449 9.31576V8.81576H38.8029L38.6789 9.13444L39.1449 9.31576ZM40.2789 9.31576L40.7451 9.13501L40.6213 8.81576H40.2789V9.31576ZM44.1709 19.3538V19.8538H44.901L44.6371 19.173L44.1709 19.3538ZM40.1669 12.1158L40.6358 11.9421L40.635 11.9402L40.1669 12.1158ZM40.0269 11.7098L39.5525 11.8679V11.8679L40.0269 11.7098ZM39.8309 11.1078L39.3471 11.234L39.3504 11.2468L39.3544 11.2594L39.8309 11.1078ZM39.6909 10.6178L40.1652 10.4596L39.6223 8.83073L39.2058 10.4965L39.6909 10.6178ZM39.5369 11.1918L39.0561 11.0544L39.0538 11.0624L39.0518 11.0705L39.5369 11.1918ZM39.3829 11.7098L38.9114 11.5433L38.907 11.5559L38.9032 11.5687L39.3829 11.7098ZM39.2569 12.1158L39.725 12.2913L39.7283 12.2827L39.7312 12.2739L39.2569 12.1158ZM38.1229 15.1398L37.6547 14.9642L37.4014 15.6398H38.1229V15.1398ZM41.2869 15.1398V15.6398H42.0053L41.7558 14.9661L41.2869 15.1398ZM43.3348 19.1724L42.1308 16.0784L41.1989 16.4411L42.4029 19.5351L43.3348 19.1724ZM41.6649 15.7598H37.7029V16.7598H41.6649V15.7598ZM37.2362 16.0803L36.0462 19.1743L36.9796 19.5332L38.1696 16.4392L37.2362 16.0803ZM36.5129 18.8538H35.2389V19.8538H36.5129V18.8538ZM35.7048 19.5351L39.6108 9.49708L38.6789 9.13444L34.7729 19.1724L35.7048 19.5351ZM39.1449 9.81576H40.2789V8.81576H39.1449V9.81576ZM39.8127 9.49651L43.7047 19.5345L44.6371 19.173L40.7451 9.13501L39.8127 9.49651ZM44.1709 18.8538H42.8689V19.8538H44.1709V18.8538ZM40.635 11.9402C40.6107 11.8753 40.5667 11.7481 40.5012 11.5516L39.5525 11.8679C39.6177 12.0634 39.6671 12.2069 39.6987 12.2913L40.635 11.9402ZM40.5012 11.5516C40.4366 11.3579 40.372 11.1594 40.3073 10.9562L39.3544 11.2594C39.4204 11.4668 39.4865 11.6696 39.5525 11.8679L40.5012 11.5516ZM40.3147 10.9815C40.2579 10.7637 40.2079 10.5876 40.1652 10.4596L39.2165 10.7759C39.2486 10.8719 39.2919 11.0225 39.3471 11.234L40.3147 10.9815ZM39.2058 10.4965C39.1606 10.6775 39.1107 10.8634 39.0561 11.0544L40.0176 11.3291C40.0751 11.1281 40.1279 10.9314 40.176 10.739L39.2058 10.4965ZM39.0518 11.0705C39.0084 11.244 38.9615 11.4014 38.9114 11.5433L39.8544 11.8762C39.9163 11.7008 39.972 11.5128 40.022 11.313L39.0518 11.0705ZM38.9032 11.5687C38.8576 11.7237 38.8174 11.853 38.7825 11.9576L39.7312 12.2739C39.771 12.1545 39.8148 12.0132 39.8626 11.8508L38.9032 11.5687ZM38.7887 11.9402L37.6547 14.9642L38.591 15.3153L39.725 12.2913L38.7887 11.9402ZM38.1229 15.6398H41.2869V14.6398H38.1229V15.6398ZM41.7558 14.9661L40.6358 11.9421L39.698 12.2894L40.818 15.3134L41.7558 14.9661ZM56.1213 9.35776L56.5922 9.52593L56.8308 8.85776H56.1213V9.35776ZM52.5513 19.3538V19.8538H52.9037L53.0222 19.5219L52.5513 19.3538ZM51.2913 19.3538L50.8204 19.5219L50.9389 19.8538H51.2913V19.3538ZM47.7213 9.35776V8.85776H47.0118L47.2504 9.52593L47.7213 9.35776ZM49.0373 9.35776L49.509 9.19194L49.3915 8.85776H49.0373V9.35776ZM51.2913 15.7698L50.8195 15.9356L50.8238 15.9471L51.2913 15.7698ZM51.5573 16.5538L52.0367 16.4117L51.5573 16.5538ZM51.7533 17.2818L51.2671 17.3984L51.2699 17.4102L51.2733 17.4218L51.7533 17.2818ZM51.9213 17.9538L51.4318 18.0557H52.4108L51.9213 17.9538ZM52.0753 17.2678L51.5938 17.1329L51.5913 17.142L51.5891 17.1511L52.0753 17.2678ZM52.2853 16.5398L51.811 16.3816L51.8083 16.3896L51.8059 16.3977L52.2853 16.5398ZM52.5513 15.7418L52.0794 15.5762L52.077 15.5836L52.5513 15.7418ZM54.7913 9.35776V8.85776H54.4369L54.3195 9.19222L54.7913 9.35776ZM55.6504 9.18959L52.0804 19.1856L53.0222 19.5219L56.5922 9.52593L55.6504 9.18959ZM52.5513 18.8538H51.2913V19.8538H52.5513V18.8538ZM51.7622 19.1856L48.1922 9.18959L47.2504 9.52593L50.8204 19.5219L51.7622 19.1856ZM47.7213 9.85776H49.0373V8.85776H47.7213V9.85776ZM48.5656 9.52358L50.8196 15.9356L51.763 15.6039L49.509 9.19194L48.5656 9.52358ZM50.8238 15.9471C50.9225 16.2073 51.0071 16.4568 51.0779 16.6958L52.0367 16.4117C51.9582 16.1467 51.8654 15.8736 51.7588 15.5924L50.8238 15.9471ZM51.0779 16.6958C51.1503 16.9402 51.2133 17.1744 51.2671 17.3984L52.2395 17.1651C52.1813 16.9225 52.1136 16.6713 52.0367 16.4117L51.0779 16.6958ZM51.2733 17.4218C51.3351 17.6335 51.3879 17.8448 51.4318 18.0557L52.4108 17.8518C52.3614 17.6147 52.3022 17.3781 52.2333 17.1418L51.2733 17.4218ZM52.4108 18.0557C52.4564 17.8369 52.5066 17.6131 52.5615 17.3844L51.5891 17.1511C51.532 17.3891 51.4796 17.6226 51.4318 17.8518L52.4108 18.0557ZM52.5568 17.4026C52.6214 17.1718 52.6907 16.9316 52.7647 16.6818L51.8059 16.3977C51.7306 16.6519 51.6599 16.897 51.5938 17.1329L52.5568 17.4026ZM52.7596 16.6979C52.8436 16.4459 52.9323 16.1799 53.0256 15.8999L52.077 15.5836C51.9836 15.8636 51.895 16.1296 51.811 16.3816L52.7596 16.6979ZM53.0231 15.9073L55.2631 9.5233L54.3195 9.19222L52.0795 15.5762L53.0231 15.9073ZM54.7913 9.85776H56.1213V8.85776H54.7913V9.85776ZM66.6009 19.3538V19.8538H67.1009V19.3538H66.6009ZM61.0149 19.3538H60.5149V19.8538H61.0149V19.3538ZM61.0149 9.35776V8.85776H60.5149V9.35776H61.0149ZM66.6009 9.35776H67.1009V8.85776H66.6009V9.35776ZM66.6009 10.4638V10.9638H67.1009V10.4638H66.6009ZM62.2749 10.4638V9.96376H61.7749V10.4638H62.2749ZM62.2749 13.5858H61.7749V14.0858H62.2749V13.5858ZM66.3489 13.5858H66.8489V13.0858H66.3489V13.5858ZM66.3489 14.6778V15.1778H66.8489V14.6778H66.3489ZM62.2749 14.6778V14.1778H61.7749V14.6778H62.2749ZM62.2749 18.2478H61.7749V18.7478H62.2749V18.2478ZM66.6009 18.2478H67.1009V17.7478H66.6009V18.2478ZM66.6009 18.8538H61.0149V19.8538H66.6009V18.8538ZM61.5149 19.3538V9.35776H60.5149V19.3538H61.5149ZM61.0149 9.85776H66.6009V8.85776H61.0149V9.85776ZM66.1009 9.35776V10.4638H67.1009V9.35776H66.1009ZM66.6009 9.96376H62.2749V10.9638H66.6009V9.96376ZM61.7749 10.4638V13.5858H62.7749V10.4638H61.7749ZM62.2749 14.0858H66.3489V13.0858H62.2749V14.0858ZM65.8489 13.5858V14.6778H66.8489V13.5858H65.8489ZM66.3489 14.1778H62.2749V15.1778H66.3489V14.1778ZM61.7749 14.6778V18.2478H62.7749V14.6778H61.7749ZM62.2749 18.7478H66.6009V17.7478H62.2749V18.7478ZM66.1009 18.2478V19.3538H67.1009V18.2478H66.1009Z" fill="#A8A8A8"/>
</g>
<defs>
<clipPath id="clip0_208_347">
<rect width="91" height="29" fill="white"/>
</clipPath>
</defs>
</svg>
